<svg width="244" height="92" viewBox="0 0 244 92" fill="none" xmlns="http://www.w3.org/2000/svg">
<path d="M19.3813 67.4293C16.2329 67.4293 13.4116 66.9182 10.9173 65.896C8.42311 64.8738 6.41956 63.3609 4.90667 61.3573C3.43467 59.3538 2.65778 56.9413 2.576 54.12H13.7387C13.9022 55.7147 14.4542 56.9413 15.3947 57.8C16.3351 58.6178 17.5618 59.0267 19.0747 59.0267C20.6284 59.0267 21.8551 58.6791 22.7547 57.984C23.6542 57.248 24.104 56.2462 24.104 54.9787C24.104 53.9156 23.736 53.0364 23 52.3413C22.3049 51.6462 21.4258 51.0738 20.3627 50.624C19.3404 50.1742 17.8684 49.6631 15.9467 49.0907C13.1662 48.232 10.8969 47.3733 9.13867 46.5147C7.38044 45.656 5.86756 44.3884 4.6 42.712C3.33244 41.0356 2.69867 38.848 2.69867 36.1493C2.69867 32.1422 4.15022 29.0142 7.05333 26.7653C9.95644 24.4756 13.7387 23.3307 18.4 23.3307C23.1431 23.3307 26.9662 24.4756 29.8693 26.7653C32.7724 29.0142 34.3262 32.1627 34.5307 36.2107H23.184C23.1022 34.8204 22.5911 33.7369 21.6507 32.96C20.7102 32.1422 19.504 31.7333 18.032 31.7333C16.7644 31.7333 15.7422 32.0809 14.9653 32.776C14.1884 33.4302 13.8 34.3911 13.8 35.6587C13.8 37.0489 14.4542 38.1324 15.7627 38.9093C17.0711 39.6862 19.1156 40.5244 21.896 41.424C24.6764 42.3644 26.9253 43.264 28.6427 44.1227C30.4009 44.9813 31.9138 46.2284 33.1813 47.864C34.4489 49.4996 35.0827 51.6053 35.0827 54.1813C35.0827 56.6347 34.4489 58.8631 33.1813 60.8667C31.9547 62.8702 30.1556 64.4649 27.784 65.6507C25.4124 66.8364 22.6116 67.4293 19.3813 67.4293ZM72.5104 23.944V32.3467H61.1024V67H50.6144V32.3467H39.2064V23.944H72.5104ZM88.078 23.944V49.704C88.078 52.28 88.7118 54.2631 89.9794 55.6533C91.2469 57.0436 93.1074 57.7387 95.5607 57.7387C98.014 57.7387 99.8949 57.0436 101.203 55.6533C102.512 54.2631 103.166 52.28 103.166 49.704V23.944H113.654V49.6427C113.654 53.4862 112.836 56.7369 111.201 59.3947C109.565 62.0524 107.357 64.056 104.577 65.4053C101.837 66.7547 98.7705 67.4293 95.3767 67.4293C91.9829 67.4293 88.9367 66.7751 86.238 65.4667C83.5802 64.1173 81.4745 62.1138 79.9207 59.456C78.3669 56.7573 77.59 53.4862 77.59 49.6427V23.944H88.078ZM137.149 23.944C141.688 23.944 145.654 24.8436 149.048 26.6427C152.442 28.4418 155.059 30.9769 156.899 34.248C158.78 37.4782 159.72 41.2196 159.72 45.472C159.72 49.6836 158.78 53.4249 156.899 56.696C155.059 59.9671 152.421 62.5022 148.987 64.3013C145.593 66.1004 141.647 67 137.149 67H121.019V23.944H137.149ZM136.475 57.9227C140.441 57.9227 143.528 56.8391 145.736 54.672C147.944 52.5049 149.048 49.4382 149.048 45.472C149.048 41.5058 147.944 38.4187 145.736 36.2107C143.528 34.0027 140.441 32.8987 136.475 32.8987H131.507V57.9227H136.475ZM176.069 32.3467V41.056H190.115V49.152H176.069V58.5973H191.955V67H165.581V23.944H191.955V32.3467H176.069ZM219.126 67.4293C215.078 67.4293 211.357 66.4889 207.964 64.608C204.611 62.7271 201.932 60.1102 199.929 56.7573C197.966 53.3636 196.985 49.5609 196.985 45.3493C196.985 41.1378 197.966 37.3556 199.929 34.0027C201.932 30.6498 204.611 28.0329 207.964 26.152C211.357 24.2711 215.078 23.3307 219.126 23.3307C223.174 23.3307 226.875 24.2711 230.228 26.152C233.621 28.0329 236.279 30.6498 238.201 34.0027C240.164 37.3556 241.145 41.1378 241.145 45.3493C241.145 49.5609 240.164 53.3636 238.201 56.7573C236.238 60.1102 233.58 62.7271 230.228 64.608C226.875 66.4889 223.174 67.4293 219.126 67.4293ZM219.126 57.8613C222.561 57.8613 225.3 56.7164 227.345 54.4267C229.43 52.1369 230.473 49.1111 230.473 45.3493C230.473 41.5467 229.43 38.5209 227.345 36.272C225.3 33.9822 222.561 32.8373 219.126 32.8373C215.651 32.8373 212.87 33.9618 210.785 36.2107C208.74 38.4596 207.718 41.5058 207.718 45.3493C207.718 49.152 208.74 52.1982 210.785 54.488C212.87 56.7369 215.651 57.8613 219.126 57.8613Z" fill="#3AA4DA"/>
<g clip-path="url(#clip0_1318_2569)">
<path d="M224.39 46.3318L215.925 51.9748C215.865 52.0148 215.795 52.0378 215.723 52.0412C215.651 52.0447 215.579 52.0285 215.516 51.9944C215.452 51.9603 215.399 51.9096 215.361 51.8476C215.324 51.7857 215.305 51.7148 215.305 51.6426V40.3566C215.305 40.2844 215.324 40.2135 215.361 40.1516C215.399 40.0896 215.452 40.0389 215.516 40.0048C215.579 39.9707 215.651 39.9545 215.723 39.958C215.795 39.9614 215.865 39.9844 215.925 40.0244L224.39 45.6674C224.444 45.7038 224.489 45.7533 224.52 45.8112C224.551 45.8692 224.567 45.9339 224.567 45.9996C224.567 46.0653 224.551 46.13 224.52 46.188C224.489 46.246 224.444 46.2954 224.39 46.3318Z" fill="#3AA4DA"/>
</g>
<defs>
<clipPath id="clip0_1318_2569">
<rect width="19.1667" height="19.1667" fill="white" transform="translate(208.914 36.416)"/>
</clipPath>
</defs>
</svg>
